<svg xmlns="http://www.w3.org/2000/svg" xmlns:xlink="http://www.w3.org/1999/xlink" xmlns:s="https://github.com/nturley/netlistsvg" width="500" height="1000">
  <style>svg {
    stroke:#000;
    fill:none;
  }
  text {
    fill:#000;
    stroke:none;
    font-size:10px;
    font-weight: bold;
    font-family: "Courier New", monospace;
  }
  .nodelabel {
    text-anchor: middle;
  }
  .inputPortLabel {
    text-anchor: end;
  }
  .splitjoinBody {
    fill:#000;
  }</style>
  <g s:type="add" transform="translate(378.6666666666667,853.5)" s:width="25" s:height="25" id="cell_$add$fibonacci.sv:32$3">
    <s:alias val="$add"/>
    <circle r="12.5" cx="12.5" cy="12.5" class="cell_$add$fibonacci.sv:32$3"/>
    <line x1="7.5" x2="17.5" y1="12.5" y2="12.5" class="cell_$add$fibonacci.sv:32$3"/>
    <line x1="12.5" x2="12.5" y1="7.5" y2="17.5" class="cell_$add$fibonacci.sv:32$3"/>
    <g s:x="3" s:y="5" s:pid="A"/>
    <g s:x="3" s:y="20" s:pid="B"/>
    <g s:x="25" s:y="12.5" s:pid="Y"/>
  </g>
  <g s:type="and" transform="translate(377,96.5)" s:width="30" s:height="25" id="cell_$and$fibonacci.sv:40$6">
    <s:alias val="$and"/>
    <s:alias val="$logic_and"/>
    <s:alias val="$_AND_"/>
    <path d="M0,0 L0,25 L15,25 A15 12.5 0 0 0 15,0 Z" class="cell_$and$fibonacci.sv:40$6"/>
    <g s:x="0" s:y="5" s:pid="A"/>
    <g s:x="0" s:y="20" s:pid="B"/>
    <g s:x="30" s:y="12.5" s:pid="Y"/>
  </g>
  <g s:type="eq" transform="translate(378.6666666666667,947)" s:width="25" s:height="25" id="cell_$eq$fibonacci.sv:32$2">
    <s:alias val="$eq"/>
    <circle r="12.5" cx="12.5" cy="12.5" class="cell_$eq$fibonacci.sv:32$2"/>
    <line x1="7.5" x2="17.5" y1="10" y2="10" class="cell_$eq$fibonacci.sv:32$2"/>
    <line x1="7.5" x2="17.5" y1="15" y2="15" class="cell_$eq$fibonacci.sv:32$2"/>
    <g s:x="3" s:y="5" s:pid="A"/>
    <g s:x="3" s:y="20" s:pid="B"/>
    <g s:x="25" s:y="12.5" s:pid="Y"/>
  </g>
  <g s:type="eq" transform="translate(197,634)" s:width="25" s:height="25" id="cell_$eq$fibonacci.sv:37$5">
    <s:alias val="$eq"/>
    <circle r="12.5" cx="12.5" cy="12.5" class="cell_$eq$fibonacci.sv:37$5"/>
    <line x1="7.5" x2="17.5" y1="10" y2="10" class="cell_$eq$fibonacci.sv:37$5"/>
    <line x1="7.5" x2="17.5" y1="15" y2="15" class="cell_$eq$fibonacci.sv:37$5"/>
    <g s:x="3" s:y="5" s:pid="A"/>
    <g s:x="3" s:y="20" s:pid="B"/>
    <g s:x="25" s:y="12.5" s:pid="Y"/>
  </g>
  <g s:type="generic" transform="translate(102,818)" s:width="30" s:height="40" id="cell_$procdff$7">
    <text x="15" y="-4" class="nodelabel cell_$procdff$7" s:attribute="ref">$adff</text>
    <rect width="30" height="60" s:generic="body" class="cell_$procdff$7"/>
    <g transform="translate(0,10)" s:x="0" s:y="10" s:pid="in0" id="port_$procdff$7~ARST">
      <text x="-3" y="-4" class="inputPortLabel cell_$procdff$7">ARST</text>
    </g>
    <g transform="translate(0,30)" s:x="0" s:y="10" s:pid="in0" id="port_$procdff$7~CLK">
      <text x="-3" y="-4" class="inputPortLabel cell_$procdff$7">CLK</text>
    </g>
    <g transform="translate(0,50)" s:x="0" s:y="10" s:pid="in0" id="port_$procdff$7~D">
      <text x="-3" y="-4" class="inputPortLabel cell_$procdff$7">D</text>
    </g>
    <g transform="translate(30,10)" s:x="30" s:y="10" s:pid="out0" id="port_$procdff$7~Q">
      <text x="5" y="-4" style="fill:#000; stroke:none" class="cell_$procdff$7">Q</text>
    </g>
  </g>
  <g s:type="generic" transform="translate(282,863)" s:width="30" s:height="40" id="cell_$procdff$8">
    <text x="15" y="-4" class="nodelabel cell_$procdff$8" s:attribute="ref">$adff</text>
    <rect width="30" height="60" s:generic="body" class="cell_$procdff$8"/>
    <g transform="translate(0,10)" s:x="0" s:y="10" s:pid="in0" id="port_$procdff$8~ARST">
      <text x="-3" y="-4" class="inputPortLabel cell_$procdff$8">ARST</text>
    </g>
    <g transform="translate(0,30)" s:x="0" s:y="10" s:pid="in0" id="port_$procdff$8~CLK">
      <text x="-3" y="-4" class="inputPortLabel cell_$procdff$8">CLK</text>
    </g>
    <g transform="translate(0,50)" s:x="0" s:y="10" s:pid="in0" id="port_$procdff$8~D">
      <text x="-3" y="-4" class="inputPortLabel cell_$procdff$8">D</text>
    </g>
    <g transform="translate(30,10)" s:x="30" s:y="10" s:pid="out0" id="port_$procdff$8~Q">
      <text x="5" y="-4" style="fill:#000; stroke:none" class="cell_$procdff$8">Q</text>
    </g>
  </g>
  <g s:type="mux" transform="translate(442,906)" s:width="20" s:height="40" id="cell_$ternary$fibonacci.sv:32$4">
    <s:alias val="$pmux"/>
    <s:alias val="$mux"/>
    <s:alias val="$_MUX_"/>
    <path d="M0,0 L20,10 L20,30 L0,40 Z" class="cell_$ternary$fibonacci.sv:32$4"/>
    <g s:x="0" s:y="10" s:pid="A"/>
    <g s:x="0" s:y="30" s:pid="B"/>
    <g s:x="10" s:y="35" s:pid="S"/>
    <g s:x="20" s:y="20" s:pid="Y"/>
  </g>
  <g s:type="inputExt" transform="translate(12,883.5)" s:width="30" s:height="20" id="cell_clk">
    <text x="15" y="-4" class="nodelabel cell_clk" s:attribute="ref">clk</text>
    <s:alias val="$_inputExt_"/>
    <path d="M0,0 L0,20 L15,20 L30,10 L15,0 Z" class="cell_clk"/>
    <g s:x="28" s:y="10" s:pid="Y"/>
  </g>
  <g s:type="inputExt" transform="translate(12,818.5)" s:width="30" s:height="20" id="cell_rst">
    <text x="15" y="-4" class="nodelabel cell_rst" s:attribute="ref">rst</text>
    <s:alias val="$_inputExt_"/>
    <path d="M0,0 L0,20 L15,20 L30,10 L15,0 Z" class="cell_rst"/>
    <g s:x="28" s:y="10" s:pid="Y"/>
  </g>
  <g s:type="outputExt" transform="translate(442,22)" s:width="30" s:height="20" id="cell_done">
    <text x="15" y="-4" class="nodelabel cell_done" s:attribute="ref">done</text>
    <s:alias val="$_outputExt_"/>
    <path d="M30,0 L30,20 L15,20 L0,10 L15,0 Z" class="cell_done"/>
    <g s:x="0" s:y="10" s:pid="A"/>
  </g>
  <g s:type="outputExt" transform="translate(442,99)" s:width="30" s:height="20" id="cell_result">
    <text x="15" y="-4" class="nodelabel cell_result" s:attribute="ref">result</text>
    <s:alias val="$_outputExt_"/>
    <path d="M30,0 L30,20 L15,20 L0,10 L15,0 Z" class="cell_result"/>
    <g s:x="0" s:y="10" s:pid="A"/>
  </g>
  <g s:type="constant" transform="translate(102,957)" s:width="30" s:height="20" id="cell_00000000000000000000000000000010">
    <text x="15" y="-4" class="nodelabel cell_00000000000000000000000000000010" s:attribute="ref">0x2</text>
    <s:alias val="$_constant_"/>
    <rect width="30" height="20" class="cell_00000000000000000000000000000010"/>
    <g s:x="30" s:y="10" s:pid="Y"/>
  </g>
  <g s:type="join" transform="translate(283.24,96)" s:width="4" s:height="40" id="cell_$join$,4,4,4,4,4,4,4,4,4,4,4,4,4,4,4,4,4,4,4,4,4,4,4,4,4,4,4,4,4,4,4,4,">
    <rect width="5" height="640" class="splitjoinBody" s:generic="body"/>
    <s:alias val="$_join_"/>
    <g s:x="5" s:y="20" s:pid="out"/>
    <g transform="translate(0,10)" s:x="0" s:y="10" s:pid="in0">
      <text x="-3" y="-4" class="inputPortLabel">0</text>
    </g>
    <g transform="translate(0,30)" s:x="0" s:y="10" s:pid="in0">
      <text x="-3" y="-4" class="inputPortLabel">1</text>
    </g>
    <g transform="translate(0,50)" s:x="0" s:y="10" s:pid="in0">
      <text x="-3" y="-4" class="inputPortLabel">2</text>
    </g>
    <g transform="translate(0,70)" s:x="0" s:y="10" s:pid="in0">
      <text x="-3" y="-4" class="inputPortLabel">3</text>
    </g>
    <g transform="translate(0,90)" s:x="0" s:y="10" s:pid="in0">
      <text x="-3" y="-4" class="inputPortLabel">4</text>
    </g>
    <g transform="translate(0,110)" s:x="0" s:y="10" s:pid="in0">
      <text x="-3" y="-4" class="inputPortLabel">5</text>
    </g>
    <g transform="translate(0,130)" s:x="0" s:y="10" s:pid="in0">
      <text x="-3" y="-4" class="inputPortLabel">6</text>
    </g>
    <g transform="translate(0,150)" s:x="0" s:y="10" s:pid="in0">
      <text x="-3" y="-4" class="inputPortLabel">7</text>
    </g>
    <g transform="translate(0,170)" s:x="0" s:y="10" s:pid="in0">
      <text x="-3" y="-4" class="inputPortLabel">8</text>
    </g>
    <g transform="translate(0,190)" s:x="0" s:y="10" s:pid="in0">
      <text x="-3" y="-4" class="inputPortLabel">9</text>
    </g>
    <g transform="translate(0,210)" s:x="0" s:y="10" s:pid="in0">
      <text x="-3" y="-4" class="inputPortLabel">10</text>
    </g>
    <g transform="translate(0,230)" s:x="0" s:y="10" s:pid="in0">
      <text x="-3" y="-4" class="inputPortLabel">11</text>
    </g>
    <g transform="translate(0,250)" s:x="0" s:y="10" s:pid="in0">
      <text x="-3" y="-4" class="inputPortLabel">12</text>
    </g>
    <g transform="translate(0,270)" s:x="0" s:y="10" s:pid="in0">
      <text x="-3" y="-4" class="inputPortLabel">13</text>
    </g>
    <g transform="translate(0,290)" s:x="0" s:y="10" s:pid="in0">
      <text x="-3" y="-4" class="inputPortLabel">14</text>
    </g>
    <g transform="translate(0,310)" s:x="0" s:y="10" s:pid="in0">
      <text x="-3" y="-4" class="inputPortLabel">15</text>
    </g>
    <g transform="translate(0,330)" s:x="0" s:y="10" s:pid="in0">
      <text x="-3" y="-4" class="inputPortLabel">16</text>
    </g>
    <g transform="translate(0,350)" s:x="0" s:y="10" s:pid="in0">
      <text x="-3" y="-4" class="inputPortLabel">17</text>
    </g>
    <g transform="translate(0,370)" s:x="0" s:y="10" s:pid="in0">
      <text x="-3" y="-4" class="inputPortLabel">18</text>
    </g>
    <g transform="translate(0,390)" s:x="0" s:y="10" s:pid="in0">
      <text x="-3" y="-4" class="inputPortLabel">19</text>
    </g>
    <g transform="translate(0,410)" s:x="0" s:y="10" s:pid="in0">
      <text x="-3" y="-4" class="inputPortLabel">20</text>
    </g>
    <g transform="translate(0,430)" s:x="0" s:y="10" s:pid="in0">
      <text x="-3" y="-4" class="inputPortLabel">21</text>
    </g>
    <g transform="translate(0,450)" s:x="0" s:y="10" s:pid="in0">
      <text x="-3" y="-4" class="inputPortLabel">22</text>
    </g>
    <g transform="translate(0,470)" s:x="0" s:y="10" s:pid="in0">
      <text x="-3" y="-4" class="inputPortLabel">23</text>
    </g>
    <g transform="translate(0,490)" s:x="0" s:y="10" s:pid="in0">
      <text x="-3" y="-4" class="inputPortLabel">24</text>
    </g>
    <g transform="translate(0,510)" s:x="0" s:y="10" s:pid="in0">
      <text x="-3" y="-4" class="inputPortLabel">25</text>
    </g>
    <g transform="translate(0,530)" s:x="0" s:y="10" s:pid="in0">
      <text x="-3" y="-4" class="inputPortLabel">26</text>
    </g>
    <g transform="translate(0,550)" s:x="0" s:y="10" s:pid="in0">
      <text x="-3" y="-4" class="inputPortLabel">27</text>
    </g>
    <g transform="translate(0,570)" s:x="0" s:y="10" s:pid="in0">
      <text x="-3" y="-4" class="inputPortLabel">28</text>
    </g>
    <g transform="translate(0,590)" s:x="0" s:y="10" s:pid="in0">
      <text x="-3" y="-4" class="inputPortLabel">29</text>
    </g>
    <g transform="translate(0,610)" s:x="0" s:y="10" s:pid="in0">
      <text x="-3" y="-4" class="inputPortLabel">30</text>
    </g>
    <g transform="translate(0,630)" s:x="0" s:y="10" s:pid="in0">
      <text x="-3" y="-4" class="inputPortLabel">31</text>
    </g>
  </g>
  <line x1="133" x2="182" y1="828.5" y2="828.5" class="net_37,38,39,40,41,42,43,44,45,46,47,48,49,50,51,52,53,54,55,56,57,58,59,60,61,62,63,64,65,66,67,68"/>
  <line x1="182" x2="182" y1="828.5" y2="786" class="net_37,38,39,40,41,42,43,44,45,46,47,48,49,50,51,52,53,54,55,56,57,58,59,60,61,62,63,64,65,66,67,68"/>
  <line x1="182" x2="352" y1="786" y2="786" class="net_37,38,39,40,41,42,43,44,45,46,47,48,49,50,51,52,53,54,55,56,57,58,59,60,61,62,63,64,65,66,67,68"/>
  <line x1="352" x2="352" y1="786" y2="858.5" class="net_37,38,39,40,41,42,43,44,45,46,47,48,49,50,51,52,53,54,55,56,57,58,59,60,61,62,63,64,65,66,67,68"/>
  <circle cx="182" cy="828.5" r="2" style="fill:#000" class="net_37,38,39,40,41,42,43,44,45,46,47,48,49,50,51,52,53,54,55,56,57,58,59,60,61,62,63,64,65,66,67,68"/>
  <circle cx="182" cy="786" r="2" style="fill:#000" class="net_37,38,39,40,41,42,43,44,45,46,47,48,49,50,51,52,53,54,55,56,57,58,59,60,61,62,63,64,65,66,67,68"/>
  <line x1="352" x2="381.6666666666667" y1="858.5" y2="858.5" class="net_37,38,39,40,41,42,43,44,45,46,47,48,49,50,51,52,53,54,55,56,57,58,59,60,61,62,63,64,65,66,67,68"/>
  <line x1="133" x2="182" y1="828.5" y2="828.5" class="net_37,38,39,40,41,42,43,44,45,46,47,48,49,50,51,52,53,54,55,56,57,58,59,60,61,62,63,64,65,66,67,68"/>
  <line x1="182" x2="182" y1="828.5" y2="43" class="net_37,38,39,40,41,42,43,44,45,46,47,48,49,50,51,52,53,54,55,56,57,58,59,60,61,62,63,64,65,66,67,68"/>
  <line x1="182" x2="352" y1="43" y2="43" class="net_37,38,39,40,41,42,43,44,45,46,47,48,49,50,51,52,53,54,55,56,57,58,59,60,61,62,63,64,65,66,67,68"/>
  <line x1="352" x2="352" y1="43" y2="101.5" class="net_37,38,39,40,41,42,43,44,45,46,47,48,49,50,51,52,53,54,55,56,57,58,59,60,61,62,63,64,65,66,67,68"/>
  <line x1="352" x2="377" y1="101.5" y2="101.5" class="net_37,38,39,40,41,42,43,44,45,46,47,48,49,50,51,52,53,54,55,56,57,58,59,60,61,62,63,64,65,66,67,68"/>
  <line x1="133" x2="182" y1="828.5" y2="828.5" class="net_37,38,39,40,41,42,43,44,45,46,47,48,49,50,51,52,53,54,55,56,57,58,59,60,61,62,63,64,65,66,67,68"/>
  <line x1="182" x2="182" y1="828.5" y2="936" class="net_37,38,39,40,41,42,43,44,45,46,47,48,49,50,51,52,53,54,55,56,57,58,59,60,61,62,63,64,65,66,67,68"/>
  <line x1="182" x2="352" y1="936" y2="936" class="net_37,38,39,40,41,42,43,44,45,46,47,48,49,50,51,52,53,54,55,56,57,58,59,60,61,62,63,64,65,66,67,68"/>
  <line x1="352" x2="352" y1="936" y2="952" class="net_37,38,39,40,41,42,43,44,45,46,47,48,49,50,51,52,53,54,55,56,57,58,59,60,61,62,63,64,65,66,67,68"/>
  <circle cx="352" cy="936" r="2" style="fill:#000" class="net_37,38,39,40,41,42,43,44,45,46,47,48,49,50,51,52,53,54,55,56,57,58,59,60,61,62,63,64,65,66,67,68"/>
  <line x1="352" x2="381.6666666666667" y1="952" y2="952" class="net_37,38,39,40,41,42,43,44,45,46,47,48,49,50,51,52,53,54,55,56,57,58,59,60,61,62,63,64,65,66,67,68"/>
  <line x1="133" x2="182" y1="828.5" y2="828.5" class="net_37,38,39,40,41,42,43,44,45,46,47,48,49,50,51,52,53,54,55,56,57,58,59,60,61,62,63,64,65,66,67,68"/>
  <line x1="182" x2="182" y1="828.5" y2="639" class="net_37,38,39,40,41,42,43,44,45,46,47,48,49,50,51,52,53,54,55,56,57,58,59,60,61,62,63,64,65,66,67,68"/>
  <circle cx="182" cy="639" r="2" style="fill:#000" class="net_37,38,39,40,41,42,43,44,45,46,47,48,49,50,51,52,53,54,55,56,57,58,59,60,61,62,63,64,65,66,67,68"/>
  <line x1="182" x2="200" y1="639" y2="639" class="net_37,38,39,40,41,42,43,44,45,46,47,48,49,50,51,52,53,54,55,56,57,58,59,60,61,62,63,64,65,66,67,68"/>
  <line x1="133" x2="182" y1="828.5" y2="828.5" class="net_37,38,39,40,41,42,43,44,45,46,47,48,49,50,51,52,53,54,55,56,57,58,59,60,61,62,63,64,65,66,67,68"/>
  <line x1="182" x2="182" y1="828.5" y2="936" class="net_37,38,39,40,41,42,43,44,45,46,47,48,49,50,51,52,53,54,55,56,57,58,59,60,61,62,63,64,65,66,67,68"/>
  <line x1="182" x2="232" y1="936" y2="936" class="net_37,38,39,40,41,42,43,44,45,46,47,48,49,50,51,52,53,54,55,56,57,58,59,60,61,62,63,64,65,66,67,68"/>
  <line x1="232" x2="232" y1="936" y2="913.5" class="net_37,38,39,40,41,42,43,44,45,46,47,48,49,50,51,52,53,54,55,56,57,58,59,60,61,62,63,64,65,66,67,68"/>
  <circle cx="232" cy="936" r="2" style="fill:#000" class="net_37,38,39,40,41,42,43,44,45,46,47,48,49,50,51,52,53,54,55,56,57,58,59,60,61,62,63,64,65,66,67,68"/>
  <line x1="232" x2="282" y1="913.5" y2="913.5" class="net_37,38,39,40,41,42,43,44,45,46,47,48,49,50,51,52,53,54,55,56,57,58,59,60,61,62,63,64,65,66,67,68"/>
  <line x1="133" x2="182" y1="828.5" y2="828.5" class="net_37,38,39,40,41,42,43,44,45,46,47,48,49,50,51,52,53,54,55,56,57,58,59,60,61,62,63,64,65,66,67,68"/>
  <line x1="182" x2="182" y1="828.5" y2="936" class="net_37,38,39,40,41,42,43,44,45,46,47,48,49,50,51,52,53,54,55,56,57,58,59,60,61,62,63,64,65,66,67,68"/>
  <line x1="182" x2="442" y1="936" y2="936" class="net_37,38,39,40,41,42,43,44,45,46,47,48,49,50,51,52,53,54,55,56,57,58,59,60,61,62,63,64,65,66,67,68"/>
  <line x1="313" x2="381.6666666666667" y1="873.5" y2="873.5" class="net_69,70,71,72,73,74,75,76,77,78,79,80,81,82,83,84,85,86,87,88,89,90,91,92,93,94,95,96,97,98,99,100"/>
  <line x1="289.24" x2="377" y1="116.5" y2="116.5" class="net_4,4,4,4,4,4,4,4,4,4,4,4,4,4,4,4,4,4,4,4,4,4,4,4,4,4,4,4,4,4,4,4"/>
  <line x1="132" x2="381.6666666666667" y1="967" y2="967" class="net_166,167,168,169,170,171,172,173,174,175,176,177,178,179,180,181,182,183,184,185,186,187,188,189,190,191,192,193,194,195,196,197"/>
  <line x1="132" x2="172" y1="967" y2="967" class="net_166,167,168,169,170,171,172,173,174,175,176,177,178,179,180,181,182,183,184,185,186,187,188,189,190,191,192,193,194,195,196,197"/>
  <line x1="172" x2="172" y1="967" y2="654" class="net_166,167,168,169,170,171,172,173,174,175,176,177,178,179,180,181,182,183,184,185,186,187,188,189,190,191,192,193,194,195,196,197"/>
  <circle cx="172" cy="967" r="2" style="fill:#000" class="net_166,167,168,169,170,171,172,173,174,175,176,177,178,179,180,181,182,183,184,185,186,187,188,189,190,191,192,193,194,195,196,197"/>
  <line x1="172" x2="200" y1="654" y2="654" class="net_166,167,168,169,170,171,172,173,174,175,176,177,178,179,180,181,182,183,184,185,186,187,188,189,190,191,192,193,194,195,196,197"/>
  <line x1="40" x2="102" y1="828.5" y2="828.5" class="net_3"/>
  <line x1="40" x2="52" y1="828.5" y2="828.5" class="net_3"/>
  <line x1="52" x2="52" y1="828.5" y2="797" class="net_3"/>
  <line x1="52" x2="232" y1="797" y2="797" class="net_3"/>
  <line x1="232" x2="232" y1="797" y2="873.5" class="net_3"/>
  <circle cx="52" cy="828.5" r="2" style="fill:#000" class="net_3"/>
  <line x1="232" x2="282" y1="873.5" y2="873.5" class="net_3"/>
  <line x1="40" x2="52" y1="893.5" y2="893.5" class="net_2"/>
  <line x1="52" x2="52" y1="893.5" y2="848.5" class="net_2"/>
  <circle cx="52" cy="893.5" r="2" style="fill:#000" class="net_2"/>
  <line x1="52" x2="102" y1="848.5" y2="848.5" class="net_2"/>
  <line x1="40" x2="282" y1="893.5" y2="893.5" class="net_2"/>
  <line x1="462" x2="488" y1="926" y2="926" class="net_134,135,136,137,138,139,140,141,142,143,144,145,146,147,148,149,150,151,152,153,154,155,156,157,158,159,160,161,162,163,164,165"/>
  <line x1="488" x2="488" y1="926" y2="987" class="net_134,135,136,137,138,139,140,141,142,143,144,145,146,147,148,149,150,151,152,153,154,155,156,157,158,159,160,161,162,163,164,165"/>
  <line x1="488" x2="62" y1="987" y2="987" class="net_134,135,136,137,138,139,140,141,142,143,144,145,146,147,148,149,150,151,152,153,154,155,156,157,158,159,160,161,162,163,164,165"/>
  <line x1="62" x2="62" y1="987" y2="868.5" class="net_134,135,136,137,138,139,140,141,142,143,144,145,146,147,148,149,150,151,152,153,154,155,156,157,158,159,160,161,162,163,164,165"/>
  <line x1="62" x2="102" y1="868.5" y2="868.5" class="net_134,135,136,137,138,139,140,141,142,143,144,145,146,147,148,149,150,151,152,153,154,155,156,157,158,159,160,161,162,163,164,165"/>
  <line x1="403.6666666666667" x2="417" y1="866" y2="866" class="net_101,102,103,104,105,106,107,108,109,110,111,112,113,114,115,116,117,118,119,120,121,122,123,124,125,126,127,128,129,130,131,132"/>
  <line x1="417" x2="417" y1="866" y2="916" class="net_101,102,103,104,105,106,107,108,109,110,111,112,113,114,115,116,117,118,119,120,121,122,123,124,125,126,127,128,129,130,131,132"/>
  <line x1="417" x2="442" y1="916" y2="916" class="net_101,102,103,104,105,106,107,108,109,110,111,112,113,114,115,116,117,118,119,120,121,122,123,124,125,126,127,128,129,130,131,132"/>
  <line x1="403.6666666666667" x2="452" y1="959.5" y2="959.5" class="net_133"/>
  <line x1="452" x2="452" y1="959.5" y2="941" class="net_133"/>
  <line x1="222" x2="232" y1="646.5" y2="646.5" class="net_4"/>
  <line x1="232" x2="232" y1="646.5" y2="32" class="net_4"/>
  <circle cx="232" cy="646.5" r="2" style="fill:#000" class="net_4"/>
  <line x1="232" x2="442" y1="32" y2="32" class="net_4"/>
  <line x1="222" x2="232" y1="646.5" y2="646.5" class="net_4"/>
  <line x1="232" x2="232" y1="646.5" y2="84" class="net_4"/>
  <line x1="232" x2="283.74" y1="84" y2="84" class="net_4"/>
  <circle cx="232" cy="84" r="2" style="fill:#000" class="net_4"/>
  <line x1="283.74" x2="283.74" y1="84" y2="106" class="net_4"/>
  <line x1="222" x2="232" y1="646.5" y2="646.5" class="net_4"/>
  <line x1="232" x2="232" y1="646.5" y2="74" class="net_4"/>
  <line x1="232" x2="283.74" y1="74" y2="74" class="net_4"/>
  <circle cx="232" cy="74" r="2" style="fill:#000" class="net_4"/>
  <line x1="283.74" x2="283.74" y1="74" y2="126" class="net_4"/>
  <line x1="222" x2="232" y1="646.5" y2="646.5" class="net_4"/>
  <line x1="232" x2="232" y1="646.5" y2="64" class="net_4"/>
  <line x1="232" x2="283.74" y1="64" y2="64" class="net_4"/>
  <circle cx="232" cy="64" r="2" style="fill:#000" class="net_4"/>
  <line x1="283.74" x2="283.74" y1="64" y2="146" class="net_4"/>
  <line x1="222" x2="232" y1="646.5" y2="646.5" class="net_4"/>
  <line x1="232" x2="232" y1="646.5" y2="54" class="net_4"/>
  <line x1="232" x2="283.74" y1="54" y2="54" class="net_4"/>
  <circle cx="232" cy="54" r="2" style="fill:#000" class="net_4"/>
  <line x1="283.74" x2="283.74" y1="54" y2="166" class="net_4"/>
  <line x1="222" x2="232" y1="646.5" y2="646.5" class="net_4"/>
  <line x1="232" x2="232" y1="646.5" y2="186.5" class="net_4"/>
  <circle cx="232" cy="186.5" r="2" style="fill:#000" class="net_4"/>
  <line x1="232" x2="283.24" y1="186.5" y2="186.5" class="net_4"/>
  <line x1="222" x2="232" y1="646.5" y2="646.5" class="net_4"/>
  <line x1="232" x2="232" y1="646.5" y2="206.5" class="net_4"/>
  <circle cx="232" cy="206.5" r="2" style="fill:#000" class="net_4"/>
  <line x1="232" x2="283.24" y1="206.5" y2="206.5" class="net_4"/>
  <line x1="222" x2="232" y1="646.5" y2="646.5" class="net_4"/>
  <line x1="232" x2="232" y1="646.5" y2="226.5" class="net_4"/>
  <circle cx="232" cy="226.5" r="2" style="fill:#000" class="net_4"/>
  <line x1="232" x2="283.24" y1="226.5" y2="226.5" class="net_4"/>
  <line x1="222" x2="232" y1="646.5" y2="646.5" class="net_4"/>
  <line x1="232" x2="232" y1="646.5" y2="246.5" class="net_4"/>
  <circle cx="232" cy="246.5" r="2" style="fill:#000" class="net_4"/>
  <line x1="232" x2="283.24" y1="246.5" y2="246.5" class="net_4"/>
  <line x1="222" x2="232" y1="646.5" y2="646.5" class="net_4"/>
  <line x1="232" x2="232" y1="646.5" y2="266.5" class="net_4"/>
  <circle cx="232" cy="266.5" r="2" style="fill:#000" class="net_4"/>
  <line x1="232" x2="283.24" y1="266.5" y2="266.5" class="net_4"/>
  <line x1="222" x2="232" y1="646.5" y2="646.5" class="net_4"/>
  <line x1="232" x2="232" y1="646.5" y2="286.5" class="net_4"/>
  <circle cx="232" cy="286.5" r="2" style="fill:#000" class="net_4"/>
  <line x1="232" x2="283.24" y1="286.5" y2="286.5" class="net_4"/>
  <line x1="222" x2="232" y1="646.5" y2="646.5" class="net_4"/>
  <line x1="232" x2="232" y1="646.5" y2="306.5" class="net_4"/>
  <circle cx="232" cy="306.5" r="2" style="fill:#000" class="net_4"/>
  <line x1="232" x2="283.24" y1="306.5" y2="306.5" class="net_4"/>
  <line x1="222" x2="232" y1="646.5" y2="646.5" class="net_4"/>
  <line x1="232" x2="232" y1="646.5" y2="326.5" class="net_4"/>
  <circle cx="232" cy="326.5" r="2" style="fill:#000" class="net_4"/>
  <line x1="232" x2="283.24" y1="326.5" y2="326.5" class="net_4"/>
  <line x1="222" x2="232" y1="646.5" y2="646.5" class="net_4"/>
  <line x1="232" x2="232" y1="646.5" y2="346.5" class="net_4"/>
  <circle cx="232" cy="346.5" r="2" style="fill:#000" class="net_4"/>
  <line x1="232" x2="283.24" y1="346.5" y2="346.5" class="net_4"/>
  <line x1="222" x2="232" y1="646.5" y2="646.5" class="net_4"/>
  <line x1="232" x2="232" y1="646.5" y2="366.5" class="net_4"/>
  <circle cx="232" cy="366.5" r="2" style="fill:#000" class="net_4"/>
  <line x1="232" x2="283.24" y1="366.5" y2="366.5" class="net_4"/>
  <line x1="222" x2="232" y1="646.5" y2="646.5" class="net_4"/>
  <line x1="232" x2="232" y1="646.5" y2="386.5" class="net_4"/>
  <circle cx="232" cy="386.5" r="2" style="fill:#000" class="net_4"/>
  <line x1="232" x2="283.24" y1="386.5" y2="386.5" class="net_4"/>
  <line x1="222" x2="232" y1="646.5" y2="646.5" class="net_4"/>
  <line x1="232" x2="232" y1="646.5" y2="406.5" class="net_4"/>
  <circle cx="232" cy="406.5" r="2" style="fill:#000" class="net_4"/>
  <line x1="232" x2="283.24" y1="406.5" y2="406.5" class="net_4"/>
  <line x1="222" x2="232" y1="646.5" y2="646.5" class="net_4"/>
  <line x1="232" x2="232" y1="646.5" y2="426.5" class="net_4"/>
  <circle cx="232" cy="426.5" r="2" style="fill:#000" class="net_4"/>
  <line x1="232" x2="283.24" y1="426.5" y2="426.5" class="net_4"/>
  <line x1="222" x2="232" y1="646.5" y2="646.5" class="net_4"/>
  <line x1="232" x2="232" y1="646.5" y2="446.5" class="net_4"/>
  <circle cx="232" cy="446.5" r="2" style="fill:#000" class="net_4"/>
  <line x1="232" x2="283.24" y1="446.5" y2="446.5" class="net_4"/>
  <line x1="222" x2="232" y1="646.5" y2="646.5" class="net_4"/>
  <line x1="232" x2="232" y1="646.5" y2="466.5" class="net_4"/>
  <circle cx="232" cy="466.5" r="2" style="fill:#000" class="net_4"/>
  <line x1="232" x2="283.24" y1="466.5" y2="466.5" class="net_4"/>
  <line x1="222" x2="232" y1="646.5" y2="646.5" class="net_4"/>
  <line x1="232" x2="232" y1="646.5" y2="486.5" class="net_4"/>
  <circle cx="232" cy="486.5" r="2" style="fill:#000" class="net_4"/>
  <line x1="232" x2="283.24" y1="486.5" y2="486.5" class="net_4"/>
  <line x1="222" x2="232" y1="646.5" y2="646.5" class="net_4"/>
  <line x1="232" x2="232" y1="646.5" y2="506.5" class="net_4"/>
  <circle cx="232" cy="506.5" r="2" style="fill:#000" class="net_4"/>
  <line x1="232" x2="283.24" y1="506.5" y2="506.5" class="net_4"/>
  <line x1="222" x2="232" y1="646.5" y2="646.5" class="net_4"/>
  <line x1="232" x2="232" y1="646.5" y2="526.5" class="net_4"/>
  <circle cx="232" cy="526.5" r="2" style="fill:#000" class="net_4"/>
  <line x1="232" x2="283.24" y1="526.5" y2="526.5" class="net_4"/>
  <line x1="222" x2="232" y1="646.5" y2="646.5" class="net_4"/>
  <line x1="232" x2="232" y1="646.5" y2="546.5" class="net_4"/>
  <circle cx="232" cy="546.5" r="2" style="fill:#000" class="net_4"/>
  <line x1="232" x2="283.24" y1="546.5" y2="546.5" class="net_4"/>
  <line x1="222" x2="232" y1="646.5" y2="646.5" class="net_4"/>
  <line x1="232" x2="232" y1="646.5" y2="566.5" class="net_4"/>
  <circle cx="232" cy="566.5" r="2" style="fill:#000" class="net_4"/>
  <line x1="232" x2="283.24" y1="566.5" y2="566.5" class="net_4"/>
  <line x1="222" x2="232" y1="646.5" y2="646.5" class="net_4"/>
  <line x1="232" x2="232" y1="646.5" y2="586.5" class="net_4"/>
  <circle cx="232" cy="586.5" r="2" style="fill:#000" class="net_4"/>
  <line x1="232" x2="283.24" y1="586.5" y2="586.5" class="net_4"/>
  <line x1="222" x2="232" y1="646.5" y2="646.5" class="net_4"/>
  <line x1="232" x2="232" y1="646.5" y2="606.5" class="net_4"/>
  <circle cx="232" cy="606.5" r="2" style="fill:#000" class="net_4"/>
  <line x1="232" x2="283.24" y1="606.5" y2="606.5" class="net_4"/>
  <line x1="222" x2="232" y1="646.5" y2="646.5" class="net_4"/>
  <line x1="232" x2="232" y1="646.5" y2="626.5" class="net_4"/>
  <circle cx="232" cy="626.5" r="2" style="fill:#000" class="net_4"/>
  <line x1="232" x2="283.24" y1="626.5" y2="626.5" class="net_4"/>
  <line x1="222" x2="283.24" y1="646.5" y2="646.5" class="net_4"/>
  <line x1="222" x2="232" y1="646.5" y2="646.5" class="net_4"/>
  <line x1="232" x2="232" y1="646.5" y2="776" class="net_4"/>
  <line x1="232" x2="283.74" y1="776" y2="776" class="net_4"/>
  <line x1="283.74" x2="283.74" y1="776" y2="667" class="net_4"/>
  <line x1="222" x2="232" y1="646.5" y2="646.5" class="net_4"/>
  <line x1="232" x2="232" y1="646.5" y2="766" class="net_4"/>
  <line x1="232" x2="283.74" y1="766" y2="766" class="net_4"/>
  <circle cx="232" cy="766" r="2" style="fill:#000" class="net_4"/>
  <line x1="283.74" x2="283.74" y1="766" y2="687" class="net_4"/>
  <line x1="222" x2="232" y1="646.5" y2="646.5" class="net_4"/>
  <line x1="232" x2="232" y1="646.5" y2="756" class="net_4"/>
  <line x1="232" x2="283.74" y1="756" y2="756" class="net_4"/>
  <circle cx="232" cy="756" r="2" style="fill:#000" class="net_4"/>
  <line x1="283.74" x2="283.74" y1="756" y2="707" class="net_4"/>
  <line x1="222" x2="232" y1="646.5" y2="646.5" class="net_4"/>
  <line x1="232" x2="232" y1="646.5" y2="746" class="net_4"/>
  <line x1="232" x2="283.74" y1="746" y2="746" class="net_4"/>
  <circle cx="232" cy="746" r="2" style="fill:#000" class="net_4"/>
  <line x1="283.74" x2="283.74" y1="746" y2="727" class="net_4"/>
  <line x1="407" x2="442" y1="109" y2="109" class="net_5,6,7,8,9,10,11,12,13,14,15,16,17,18,19,20,21,22,23,24,25,26,27,28,29,30,31,32,33,34,35,36"/>
</svg>
