<svg xmlns="http://www.w3.org/2000/svg" xmlns:xlink="http://www.w3.org/1999/xlink" xmlns:s="https://github.com/nturley/netlistsvg" width="828" height="397.5">
  <style>svg {
    stroke:#000;
    fill:none;
  }
  text {
    fill:#000;
    stroke:none;
    font-size:10px;
    font-weight: bold;
    font-family: "Courier New", monospace;
  }
  .nodelabel {
    text-anchor: middle;
  }
  .inputPortLabel {
    text-anchor: end;
  }
  .splitjoinBody {
    fill:#000;
  }</style>
  <g s:type="mux" transform="translate(703,170)" s:width="20" s:height="40" id="cell_$ternary$instruction_fetch.sv:43$2">
    <s:alias val="$pmux"/>
    <s:alias val="$mux"/>
    <s:alias val="$_MUX_"/>
    <path d="M0,0 L20,10 L20,30 L0,40 Z" class="cell_$ternary$instruction_fetch.sv:43$2"/>
    <g s:x="0" s:y="10" s:pid="A"/>
    <g s:x="0" s:y="30" s:pid="B"/>
    <g s:x="10" s:y="35" s:pid="S"/>
    <g s:x="20" s:y="20" s:pid="Y"/>
  </g>
  <g s:type="mux" transform="translate(758,180)" s:width="20" s:height="40" id="cell_$ternary$instruction_fetch.sv:43$3">
    <s:alias val="$pmux"/>
    <s:alias val="$mux"/>
    <s:alias val="$_MUX_"/>
    <path d="M0,0 L20,10 L20,30 L0,40 Z" class="cell_$ternary$instruction_fetch.sv:43$3"/>
    <g s:x="0" s:y="10" s:pid="A"/>
    <g s:x="0" s:y="30" s:pid="B"/>
    <g s:x="10" s:y="35" s:pid="S"/>
    <g s:x="20" s:y="20" s:pid="Y"/>
  </g>
  <g s:type="mux" transform="translate(546.6666666666666,24.5)" s:width="20" s:height="40" id="cell_$ternary$instruction_fetch.sv:49$5">
    <s:alias val="$pmux"/>
    <s:alias val="$mux"/>
    <s:alias val="$_MUX_"/>
    <path d="M0,0 L20,10 L20,30 L0,40 Z" class="cell_$ternary$instruction_fetch.sv:49$5"/>
    <g s:x="0" s:y="10" s:pid="A"/>
    <g s:x="0" s:y="30" s:pid="B"/>
    <g s:x="10" s:y="35" s:pid="S"/>
    <g s:x="20" s:y="20" s:pid="Y"/>
  </g>
  <g s:type="mux" transform="translate(625.3333333333334,34.5)" s:width="20" s:height="40" id="cell_$ternary$instruction_fetch.sv:49$6">
    <s:alias val="$pmux"/>
    <s:alias val="$mux"/>
    <s:alias val="$_MUX_"/>
    <path d="M0,0 L20,10 L20,30 L0,40 Z" class="cell_$ternary$instruction_fetch.sv:49$6"/>
    <g s:x="0" s:y="10" s:pid="A"/>
    <g s:x="0" s:y="30" s:pid="B"/>
    <g s:x="10" s:y="35" s:pid="S"/>
    <g s:x="20" s:y="20" s:pid="Y"/>
  </g>
  <g s:type="generic" transform="translate(149,235)" s:width="30" s:height="40" id="cell_u_pc_incr_ff">
    <text x="15" y="-4" class="nodelabel cell_u_pc_incr_ff" s:attribute="ref">$paramod$bbc0fff1baf4a0355009817f8f3153b6e270a0f5\en_ff</text>
    <rect width="30" height="80" s:generic="body" class="cell_u_pc_incr_ff"/>
    <g transform="translate(0,10)" s:x="0" s:y="10" s:pid="in0" id="port_u_pc_incr_ff~ff_clk">
      <text x="-3" y="-4" class="inputPortLabel cell_u_pc_incr_ff">ff_clk</text>
    </g>
    <g transform="translate(0,30)" s:x="0" s:y="10" s:pid="in0" id="port_u_pc_incr_ff~ff_en">
      <text x="-3" y="-4" class="inputPortLabel cell_u_pc_incr_ff">ff_en</text>
    </g>
    <g transform="translate(0,50)" s:x="0" s:y="10" s:pid="in0" id="port_u_pc_incr_ff~ff_in_d">
      <text x="-3" y="-4" class="inputPortLabel cell_u_pc_incr_ff">ff_in_d</text>
    </g>
    <g transform="translate(0,70)" s:x="0" s:y="10" s:pid="in0" id="port_u_pc_incr_ff~ff_rst">
      <text x="-3" y="-4" class="inputPortLabel cell_u_pc_incr_ff">ff_rst</text>
    </g>
    <g transform="translate(30,10)" s:x="30" s:y="10" s:pid="out0" id="port_u_pc_incr_ff~ff_out_not_q">
      <text x="5" y="-4" style="fill:#000; stroke:none" class="cell_u_pc_incr_ff">ff_out_not_q</text>
    </g>
    <g transform="translate(30,30)" s:x="30" s:y="10" s:pid="out0" id="port_u_pc_incr_ff~ff_out_q">
      <text x="5" y="-4" style="fill:#000; stroke:none" class="cell_u_pc_incr_ff">ff_out_q</text>
    </g>
  </g>
  <g s:type="generic" transform="translate(429,255)" s:width="30" s:height="40" id="cell_u_pc_jump">
    <text x="15" y="-4" class="nodelabel cell_u_pc_jump" s:attribute="ref">$paramod\adder_rv\OP_W=s32'00000000000000000000000000100000</text>
    <rect width="30" height="40" s:generic="body" class="cell_u_pc_jump"/>
    <g transform="translate(0,10)" s:x="0" s:y="10" s:pid="in0" id="port_u_pc_jump~op1">
      <text x="-3" y="-4" class="inputPortLabel cell_u_pc_jump">op1</text>
    </g>
    <g transform="translate(0,30)" s:x="0" s:y="10" s:pid="in0" id="port_u_pc_jump~op2">
      <text x="-3" y="-4" class="inputPortLabel cell_u_pc_jump">op2</text>
    </g>
    <g transform="translate(30,10)" s:x="30" s:y="10" s:pid="out0" id="port_u_pc_jump~o_flow">
      <text x="5" y="-4" style="fill:#000; stroke:none" class="cell_u_pc_jump">o_flow</text>
    </g>
    <g transform="translate(30,30)" s:x="30" s:y="10" s:pid="out0" id="port_u_pc_jump~sum_o">
      <text x="5" y="-4" style="fill:#000; stroke:none" class="cell_u_pc_jump">sum_o</text>
    </g>
  </g>
  <g s:type="generic" transform="translate(307,149.5)" s:width="30" s:height="40" id="cell_u_pc_plus_4">
    <text x="15" y="-4" class="nodelabel cell_u_pc_plus_4" s:attribute="ref">$paramod\adder_rv\OP_W=s32'00000000000000000000000000100000</text>
    <rect width="30" height="40" s:generic="body" class="cell_u_pc_plus_4"/>
    <g transform="translate(0,10)" s:x="0" s:y="10" s:pid="in0" id="port_u_pc_plus_4~op1">
      <text x="-3" y="-4" class="inputPortLabel cell_u_pc_plus_4">op1</text>
    </g>
    <g transform="translate(0,30)" s:x="0" s:y="10" s:pid="in0" id="port_u_pc_plus_4~op2">
      <text x="-3" y="-4" class="inputPortLabel cell_u_pc_plus_4">op2</text>
    </g>
    <g transform="translate(30,10)" s:x="30" s:y="10" s:pid="out0" id="port_u_pc_plus_4~o_flow">
      <text x="5" y="-4" style="fill:#000; stroke:none" class="cell_u_pc_plus_4">o_flow</text>
    </g>
    <g transform="translate(30,30)" s:x="30" s:y="10" s:pid="out0" id="port_u_pc_plus_4~sum_o">
      <text x="5" y="-4" style="fill:#000; stroke:none" class="cell_u_pc_plus_4">sum_o</text>
    </g>
  </g>
  <g s:type="inputExt" transform="translate(12,365.5)" s:width="30" s:height="20" id="cell_fetch_rst">
    <text x="15" y="-4" class="nodelabel cell_fetch_rst" s:attribute="ref">fetch_rst</text>
    <s:alias val="$_inputExt_"/>
    <path d="M0,0 L0,20 L15,20 L30,10 L15,0 Z" class="cell_fetch_rst"/>
    <g s:x="28" s:y="10" s:pid="Y"/>
  </g>
  <g s:type="inputExt" transform="translate(12,235.5)" s:width="30" s:height="20" id="cell_fetch_clk">
    <text x="15" y="-4" class="nodelabel cell_fetch_clk" s:attribute="ref">fetch_clk</text>
    <s:alias val="$_inputExt_"/>
    <path d="M0,0 L0,20 L15,20 L30,10 L15,0 Z" class="cell_fetch_clk"/>
    <g s:x="28" s:y="10" s:pid="Y"/>
  </g>
  <g s:type="inputExt" transform="translate(614,201)" s:width="30" s:height="20" id="cell_in_branch">
    <text x="15" y="-4" class="nodelabel cell_in_branch" s:attribute="ref">in_branch</text>
    <s:alias val="$_inputExt_"/>
    <path d="M0,0 L0,20 L15,20 L30,10 L15,0 Z" class="cell_in_branch"/>
    <g s:x="28" s:y="10" s:pid="Y"/>
  </g>
  <g s:type="inputExt" transform="translate(307,286.5)" s:width="30" s:height="20" id="cell_in_jump">
    <text x="15" y="-4" class="nodelabel cell_in_jump" s:attribute="ref">in_jump</text>
    <s:alias val="$_inputExt_"/>
    <path d="M0,0 L0,20 L15,20 L30,10 L15,0 Z" class="cell_in_jump"/>
    <g s:x="28" s:y="10" s:pid="Y"/>
  </g>
  <g s:type="inputExt" transform="translate(537,201)" s:width="30" s:height="20" id="cell_is_jump">
    <text x="15" y="-4" class="nodelabel cell_is_jump" s:attribute="ref">is_jump</text>
    <s:alias val="$_inputExt_"/>
    <path d="M0,0 L0,20 L15,20 L30,10 L15,0 Z" class="cell_is_jump"/>
    <g s:x="28" s:y="10" s:pid="Y"/>
  </g>
  <g s:type="inputExt" transform="translate(429,150)" s:width="30" s:height="20" id="cell_is_branch">
    <text x="15" y="-4" class="nodelabel cell_is_branch" s:attribute="ref">is_branch</text>
    <s:alias val="$_inputExt_"/>
    <path d="M0,0 L0,20 L15,20 L30,10 L15,0 Z" class="cell_is_branch"/>
    <g s:x="28" s:y="10" s:pid="Y"/>
  </g>
  <g s:type="outputExt" transform="translate(758,316.5)" s:width="30" s:height="20" id="cell_pc">
    <text x="15" y="-4" class="nodelabel cell_pc" s:attribute="ref">pc</text>
    <s:alias val="$_outputExt_"/>
    <path d="M30,0 L30,20 L15,20 L0,10 L15,0 Z" class="cell_pc"/>
    <g s:x="0" s:y="10" s:pid="A"/>
  </g>
  <g s:type="outputExt" transform="translate(758,22)" s:width="30" s:height="20" id="cell_pc_error">
    <text x="15" y="-4" class="nodelabel cell_pc_error" s:attribute="ref">pc_error</text>
    <s:alias val="$_outputExt_"/>
    <path d="M30,0 L30,20 L15,20 L0,10 L15,0 Z" class="cell_pc_error"/>
    <g s:x="0" s:y="10" s:pid="A"/>
  </g>
  <g s:type="constant" transform="translate(307,34.5)" s:width="30" s:height="20" id="cell_0000000000000000000000000000000">
    <text x="15" y="-4" class="nodelabel cell_0000000000000000000000000000000" s:attribute="ref">0x0</text>
    <s:alias val="$_constant_"/>
    <rect width="30" height="20" class="cell_0000000000000000000000000000000"/>
    <g s:x="30" s:y="10" s:pid="Y"/>
  </g>
  <g s:type="constant" transform="translate(429,99)" s:width="30" s:height="20" id="cell_00000000000000000000000000000000">
    <text x="15" y="-4" class="nodelabel cell_00000000000000000000000000000000" s:attribute="ref">0x0</text>
    <s:alias val="$_constant_"/>
    <rect width="30" height="20" class="cell_00000000000000000000000000000000"/>
    <g s:x="30" s:y="10" s:pid="Y"/>
  </g>
  <g s:type="constant" transform="translate(12,300.5)" s:width="30" s:height="20" id="cell_1">
    <text x="15" y="-4" class="nodelabel cell_1" s:attribute="ref">1</text>
    <s:alias val="$_constant_"/>
    <rect width="30" height="20" class="cell_1"/>
    <g s:x="30" s:y="10" s:pid="Y"/>
  </g>
  <g s:type="constant" transform="translate(149,170)" s:width="30" s:height="20" id="cell_00000000000000000000000000000100">
    <text x="15" y="-4" class="nodelabel cell_00000000000000000000000000000100" s:attribute="ref">0x4</text>
    <s:alias val="$_constant_"/>
    <rect width="30" height="20" class="cell_00000000000000000000000000000100"/>
    <g s:x="30" s:y="10" s:pid="Y"/>
  </g>
  <g s:type="join" transform="translate(444,14)" s:width="4" s:height="40" id="cell_$join$,231,296,297,298,299,300,301,302,303,304,305,306,307,308,309,310,311,312,313,314,315,316,317,318,319,320,321,322,323,324,325,326,">
    <rect width="5" height="40" class="splitjoinBody" s:generic="body"/>
    <s:alias val="$_join_"/>
    <g s:x="5" s:y="20" s:pid="out"/>
    <g transform="translate(0,10)" s:x="0" s:y="10" s:pid="in0">
      <text x="-3" y="-4" class="inputPortLabel">0</text>
    </g>
    <g transform="translate(0,30)" s:x="0" s:y="10" s:pid="in0">
      <text x="-3" y="-4" class="inputPortLabel">1:31</text>
    </g>
  </g>
  <g s:type="join" transform="translate(552,98.5)" s:width="4" s:height="40" id="cell_$join$,264,296,297,298,299,300,301,302,303,304,305,306,307,308,309,310,311,312,313,314,315,316,317,318,319,320,321,322,323,324,325,326,">
    <rect width="5" height="40" class="splitjoinBody" s:generic="body"/>
    <s:alias val="$_join_"/>
    <g s:x="5" s:y="20" s:pid="out"/>
    <g transform="translate(0,10)" s:x="0" s:y="10" s:pid="in0">
      <text x="-3" y="-4" class="inputPortLabel">0</text>
    </g>
    <g transform="translate(0,30)" s:x="0" s:y="10" s:pid="in0">
      <text x="-3" y="-4" class="inputPortLabel">1:31</text>
    </g>
  </g>
  <g s:type="split" transform="translate(711,21.5)" s:width="5" s:height="40" id="cell_$split$,102,265,266,267,268,269,270,271,272,273,274,275,276,277,278,279,280,281,282,283,284,285,286,287,288,289,290,291,292,293,294,295,">
    <rect width="5" height="20" class="splitjoinBody" s:generic="body"/>
    <s:alias val="$_split_"/>
    <g s:x="0" s:y="20" s:pid="in"/>
    <g transform="translate(4,10)" s:x="4" s:y="10" s:pid="out0">
      <text x="5" y="-4">0</text>
    </g>
  </g>
  <line x1="338" x2="703" y1="180" y2="180" class="net_103,104,105,106,107,108,109,110,111,112,113,114,115,116,117,118,119,120,121,122,123,124,125,126,127,128,129,130,131,132,133,134"/>
  <line x1="642" x2="678" y1="211" y2="211" class="net_4,5,6,7,8,9,10,11,12,13,14,15,16,17,18,19,20,21,22,23,24,25,26,27,28,29,30,31,32,33,34,35"/>
  <line x1="678" x2="678" y1="211" y2="200" class="net_4,5,6,7,8,9,10,11,12,13,14,15,16,17,18,19,20,21,22,23,24,25,26,27,28,29,30,31,32,33,34,35"/>
  <line x1="678" x2="703" y1="200" y2="200" class="net_4,5,6,7,8,9,10,11,12,13,14,15,16,17,18,19,20,21,22,23,24,25,26,27,28,29,30,31,32,33,34,35"/>
  <line x1="457" x2="517" y1="160" y2="160" class="net_69"/>
  <line x1="517" x2="517" y1="160" y2="231" class="net_69"/>
  <line x1="517" x2="713" y1="231" y2="231" class="net_69"/>
  <circle cx="517" cy="160" r="2" style="fill:#000" class="net_69"/>
  <line x1="713" x2="713" y1="231" y2="205" class="net_69"/>
  <line x1="457" x2="517" y1="160" y2="160" class="net_69"/>
  <line x1="517" x2="517" y1="160" y2="74.5" class="net_69"/>
  <line x1="517" x2="556.6666666666666" y1="74.5" y2="74.5" class="net_69"/>
  <line x1="556.6666666666666" x2="556.6666666666666" y1="74.5" y2="59.5" class="net_69"/>
  <line x1="723" x2="758" y1="190" y2="190" class="net_135,136,137,138,139,140,141,142,143,144,145,146,147,148,149,150,151,152,153,154,155,156,157,158,159,160,161,162,163,164,165,166"/>
  <line x1="460" x2="733" y1="285.5" y2="285.5" class="net_167,168,169,170,171,172,173,174,175,176,177,178,179,180,181,182,183,184,185,186,187,188,189,190,191,192,193,194,195,196,197,198"/>
  <line x1="733" x2="733" y1="285.5" y2="210" class="net_167,168,169,170,171,172,173,174,175,176,177,178,179,180,181,182,183,184,185,186,187,188,189,190,191,192,193,194,195,196,197,198"/>
  <line x1="733" x2="758" y1="210" y2="210" class="net_167,168,169,170,171,172,173,174,175,176,177,178,179,180,181,182,183,184,185,186,187,188,189,190,191,192,193,194,195,196,197,198"/>
  <line x1="565" x2="599" y1="211" y2="211" class="net_68"/>
  <line x1="599" x2="599" y1="211" y2="296.5" class="net_68"/>
  <line x1="599" x2="768" y1="296.5" y2="296.5" class="net_68"/>
  <circle cx="599" cy="211" r="2" style="fill:#000" class="net_68"/>
  <line x1="768" x2="768" y1="296.5" y2="215" class="net_68"/>
  <line x1="565" x2="599" y1="211" y2="211" class="net_68"/>
  <line x1="599" x2="599" y1="211" y2="84.5" class="net_68"/>
  <line x1="599" x2="635.3333333333334" y1="84.5" y2="84.5" class="net_68"/>
  <line x1="635.3333333333334" x2="635.3333333333334" y1="84.5" y2="69.5" class="net_68"/>
  <line x1="450" x2="546.6666666666666" y1="34.5" y2="34.5" class="net_231,296,297,298,299,300,301,302,303,304,305,306,307,308,309,310,311,312,313,314,315,316,317,318,319,320,321,322,323,324,325,326"/>
  <line x1="459" x2="507" y1="109" y2="109" class="net_327,328,329,330,331,332,333,334,335,336,337,338,339,340,341,342,343,344,345,346,347,348,349,350,351,352,353,354,355,356,357,358"/>
  <line x1="507" x2="507" y1="109" y2="54.5" class="net_327,328,329,330,331,332,333,334,335,336,337,338,339,340,341,342,343,344,345,346,347,348,349,350,351,352,353,354,355,356,357,358"/>
  <line x1="507" x2="546.6666666666666" y1="54.5" y2="54.5" class="net_327,328,329,330,331,332,333,334,335,336,337,338,339,340,341,342,343,344,345,346,347,348,349,350,351,352,353,354,355,356,357,358"/>
  <line x1="566.6666666666666" x2="625.3333333333334" y1="44.5" y2="44.5" class="net_232,233,234,235,236,237,238,239,240,241,242,243,244,245,246,247,248,249,250,251,252,253,254,255,256,257,258,259,260,261,262,263"/>
  <line x1="558" x2="589" y1="119" y2="119" class="net_264,296,297,298,299,300,301,302,303,304,305,306,307,308,309,310,311,312,313,314,315,316,317,318,319,320,321,322,323,324,325,326"/>
  <line x1="589" x2="589" y1="119" y2="64.5" class="net_264,296,297,298,299,300,301,302,303,304,305,306,307,308,309,310,311,312,313,314,315,316,317,318,319,320,321,322,323,324,325,326"/>
  <line x1="589" x2="625.3333333333334" y1="64.5" y2="64.5" class="net_264,296,297,298,299,300,301,302,303,304,305,306,307,308,309,310,311,312,313,314,315,316,317,318,319,320,321,322,323,324,325,326"/>
  <line x1="40" x2="149" y1="245.5" y2="245.5" class="net_3"/>
  <line x1="42" x2="76" y1="310.5" y2="310.5" class="net_390"/>
  <line x1="76" x2="76" y1="310.5" y2="265.5" class="net_390"/>
  <line x1="76" x2="149" y1="265.5" y2="265.5" class="net_390"/>
  <line x1="778" x2="816" y1="200" y2="200" class="net_199,200,201,202,203,204,205,206,207,208,209,210,211,212,213,214,215,216,217,218,219,220,221,222,223,224,225,226,227,228,229,230"/>
  <line x1="816" x2="816" y1="200" y2="346.5" class="net_199,200,201,202,203,204,205,206,207,208,209,210,211,212,213,214,215,216,217,218,219,220,221,222,223,224,225,226,227,228,229,230"/>
  <line x1="816" x2="86" y1="346.5" y2="346.5" class="net_199,200,201,202,203,204,205,206,207,208,209,210,211,212,213,214,215,216,217,218,219,220,221,222,223,224,225,226,227,228,229,230"/>
  <line x1="86" x2="86" y1="346.5" y2="285.5" class="net_199,200,201,202,203,204,205,206,207,208,209,210,211,212,213,214,215,216,217,218,219,220,221,222,223,224,225,226,227,228,229,230"/>
  <line x1="86" x2="149" y1="285.5" y2="285.5" class="net_199,200,201,202,203,204,205,206,207,208,209,210,211,212,213,214,215,216,217,218,219,220,221,222,223,224,225,226,227,228,229,230"/>
  <line x1="40" x2="96" y1="375.5" y2="375.5" class="net_2"/>
  <line x1="96" x2="96" y1="375.5" y2="305.5" class="net_2"/>
  <line x1="96" x2="149" y1="305.5" y2="305.5" class="net_2"/>
  <line x1="180" x2="429" y1="265.5" y2="265.5" class="net_70,71,72,73,74,75,76,77,78,79,80,81,82,83,84,85,86,87,88,89,90,91,92,93,94,95,96,97,98,99,100,101"/>
  <line x1="180" x2="263" y1="265.5" y2="265.5" class="net_70,71,72,73,74,75,76,77,78,79,80,81,82,83,84,85,86,87,88,89,90,91,92,93,94,95,96,97,98,99,100,101"/>
  <line x1="263" x2="263" y1="265.5" y2="160" class="net_70,71,72,73,74,75,76,77,78,79,80,81,82,83,84,85,86,87,88,89,90,91,92,93,94,95,96,97,98,99,100,101"/>
  <circle cx="263" cy="265.5" r="2" style="fill:#000" class="net_70,71,72,73,74,75,76,77,78,79,80,81,82,83,84,85,86,87,88,89,90,91,92,93,94,95,96,97,98,99,100,101"/>
  <line x1="263" x2="307" y1="160" y2="160" class="net_70,71,72,73,74,75,76,77,78,79,80,81,82,83,84,85,86,87,88,89,90,91,92,93,94,95,96,97,98,99,100,101"/>
  <line x1="180" x2="263" y1="265.5" y2="265.5" class="net_70,71,72,73,74,75,76,77,78,79,80,81,82,83,84,85,86,87,88,89,90,91,92,93,94,95,96,97,98,99,100,101"/>
  <line x1="263" x2="263" y1="265.5" y2="326.5" class="net_70,71,72,73,74,75,76,77,78,79,80,81,82,83,84,85,86,87,88,89,90,91,92,93,94,95,96,97,98,99,100,101"/>
  <line x1="263" x2="758" y1="326.5" y2="326.5" class="net_70,71,72,73,74,75,76,77,78,79,80,81,82,83,84,85,86,87,88,89,90,91,92,93,94,95,96,97,98,99,100,101"/>
  <line x1="335" x2="385" y1="296.5" y2="296.5" class="net_36,37,38,39,40,41,42,43,44,45,46,47,48,49,50,51,52,53,54,55,56,57,58,59,60,61,62,63,64,65,66,67"/>
  <line x1="385" x2="385" y1="296.5" y2="285.5" class="net_36,37,38,39,40,41,42,43,44,45,46,47,48,49,50,51,52,53,54,55,56,57,58,59,60,61,62,63,64,65,66,67"/>
  <line x1="385" x2="429" y1="285.5" y2="285.5" class="net_36,37,38,39,40,41,42,43,44,45,46,47,48,49,50,51,52,53,54,55,56,57,58,59,60,61,62,63,64,65,66,67"/>
  <line x1="179" x2="307" y1="180" y2="180" class="net_391,392,393,394,395,396,397,398,399,400,401,402,403,404,405,406,407,408,409,410,411,412,413,414,415,416,417,418,419,420,421,422"/>
  <line x1="716" x2="758" y1="32" y2="32" class="net_102"/>
  <line x1="338" x2="385" y1="160" y2="160" class="net_231"/>
  <line x1="385" x2="385" y1="160" y2="24.5" class="net_231"/>
  <line x1="385" x2="444" y1="24.5" y2="24.5" class="net_231"/>
  <line x1="337" x2="444" y1="44.5" y2="44.5" class="net_296,297,298,299,300,301,302,303,304,305,306,307,308,309,310,311,312,313,314,315,316,317,318,319,320,321,322,323,324,325,326"/>
  <line x1="337" x2="395" y1="44.5" y2="44.5" class="net_296,297,298,299,300,301,302,303,304,305,306,307,308,309,310,311,312,313,314,315,316,317,318,319,320,321,322,323,324,325,326"/>
  <line x1="395" x2="395" y1="44.5" y2="129" class="net_296,297,298,299,300,301,302,303,304,305,306,307,308,309,310,311,312,313,314,315,316,317,318,319,320,321,322,323,324,325,326"/>
  <circle cx="395" cy="44.5" r="2" style="fill:#000" class="net_296,297,298,299,300,301,302,303,304,305,306,307,308,309,310,311,312,313,314,315,316,317,318,319,320,321,322,323,324,325,326"/>
  <line x1="395" x2="552" y1="129" y2="129" class="net_296,297,298,299,300,301,302,303,304,305,306,307,308,309,310,311,312,313,314,315,316,317,318,319,320,321,322,323,324,325,326"/>
  <line x1="460" x2="527" y1="265.5" y2="265.5" class="net_264"/>
  <line x1="527" x2="527" y1="265.5" y2="109" class="net_264"/>
  <line x1="527" x2="552" y1="109" y2="109" class="net_264"/>
  <line x1="645.3333333333334" x2="711.5" y1="54.5" y2="54.5" class="net_102,265,266,267,268,269,270,271,272,273,274,275,276,277,278,279,280,281,282,283,284,285,286,287,288,289,290,291,292,293,294,295"/>
  <line x1="711.5" x2="711.5" y1="54.5" y2="42.5" class="net_102,265,266,267,268,269,270,271,272,273,274,275,276,277,278,279,280,281,282,283,284,285,286,287,288,289,290,291,292,293,294,295"/>
</svg>
